<svg width="39" height="35" viewBox="0 0 39 35" fill="none" xmlns="http://www.w3.org/2000/svg">
<g clip-path="url(#clip0_138_33367)">
<path d="M19.3226 4.02808L35.1647 17.0213L34.5575 17.2734V31.9071C34.2964 32.9956 33.5655 33.8484 32.5171 34.3035C24.0946 34.6935 15.5505 34.362 7.08253 34.4722C5.92933 34.2096 5.08767 33.6577 4.60899 32.5797C4.20942 27.5329 4.54668 22.3643 4.43492 17.2734C4.35976 17.1708 3.78711 17.372 3.91371 16.8527L19.3226 4.02808Z" fill="#353E48"/>
<path d="M19.1471 21.3525C21.5188 21.0909 21.595 23.7087 22.5761 24.7589C22.9905 25.2026 23.5829 25.3013 24.0082 25.6424C26.0396 27.2665 25.4858 31.1827 22.4455 30.9413C21.6988 30.8818 20.8651 30.42 20.1015 30.3529C18.4726 30.2101 16.9159 31.131 15.5877 30.9413C13.6848 30.6701 13.4514 27.783 14.1556 26.4415C14.6916 25.4191 15.9328 25.2993 16.5866 24.4235C17.3016 23.4634 17.4223 21.5441 19.1471 21.3535V21.3525Z" fill="#FBFBFB"/>
<path d="M21.4045 14.7093C24.3161 14.1181 23.9067 20.6617 21.7516 21.1015C19.0813 21.6458 19.3928 15.1175 21.4045 14.7093Z" fill="#FBFBFB"/>
<path d="M16.6299 14.7093C19.6425 13.9801 20.0242 21.6744 17.0641 21.1014C15.1612 20.7325 14.8794 15.1337 16.6299 14.7093Z" fill="#FBFBFB"/>
<path d="M13.6795 18.9983C16.3053 18.6025 16.8117 24.6737 14.6339 24.9698C12.3403 25.2812 11.5857 19.3145 13.6795 18.9983Z" fill="#FBFBFB"/>
<path d="M24.7044 18.9982C27.1215 18.6399 26.9277 23.6455 25.1385 24.7168C22.3812 26.3688 22.2615 19.3604 24.7044 18.9982Z" fill="#FBFBFB"/>
<path d="M37.7408 16.2577L21.1025 2.5142C19.6862 1.51671 19.434 1.42568 17.9772 2.42988L1.25781 16.2635" stroke="#353E48" stroke-width="1.9007" stroke-linecap="round" stroke-linejoin="round"/>
</g>
<defs>
<clipPath id="clip0_138_33367">
<rect width="39" height="34" fill="white" transform="translate(0 0.5)"/>
</clipPath>
</defs>
</svg>
