<svg width="31" height="28" viewBox="0 0 31 28" fill="none" xmlns="http://www.w3.org/2000/svg">
<path d="M6.57219 20.3228C5.25304 20.3228 4.09878 20.0095 3.10942 19.3829C2.12791 18.7563 1.36234 17.8978 0.81269 16.8074C0.270897 15.717 0 14.472 0 13.0723C0 12.1609 0.153115 11.2821 0.459347 10.4358C0.765577 9.58951 1.19744 8.83273 1.75494 8.16546C2.10043 8.93852 2.6383 9.55696 3.36854 10.0208C4.10664 10.4765 4.99 10.7043 6.01862 10.7043C6.27774 10.7043 6.49759 10.6067 6.67819 10.4114C6.86664 10.2161 6.96087 9.98418 6.96087 9.71564C6.96087 9.45524 6.86664 9.2274 6.67819 9.0321C6.49759 8.8368 6.27774 8.73915 6.01862 8.73915C5.49253 8.73915 5.02533 8.61302 4.61702 8.36076C4.21657 8.1085 3.90248 7.7708 3.67477 7.34765C3.44706 6.9245 3.33321 6.46067 3.33321 5.95615C3.33321 5.19937 3.54914 4.50769 3.981 3.8811C4.42072 3.24638 5.01355 2.74186 5.7595 2.36754C6.5133 1.99322 7.36525 1.80606 8.31535 1.80606C8.88855 1.80606 9.44212 1.88336 9.97606 2.03797C9.81902 2.39602 9.69732 2.77441 9.61094 3.17315C9.52457 3.57188 9.47353 3.99096 9.45783 4.43038C9.44212 4.74774 9.52457 5.00407 9.70517 5.19937C9.89362 5.39467 10.1213 5.49231 10.3883 5.49231C10.6474 5.49231 10.8633 5.41094 11.0361 5.24819C11.2167 5.07731 11.3148 4.83318 11.3305 4.51582C11.362 3.73463 11.5543 3.04295 11.9077 2.44078C12.2689 1.83861 12.7596 1.36664 13.3799 1.02486C14.0081 0.674955 14.7383 0.5 15.5707 0.5C16.2774 0.5 16.9801 0.674955 17.679 1.02486C18.3778 1.36664 18.9628 1.83861 19.4339 2.44078C19.5988 2.40009 19.7598 2.37161 19.9168 2.35533C20.0738 2.33092 20.2112 2.31872 20.329 2.31872C21.2006 2.31872 22.0408 2.52215 22.8495 2.92902C23.6583 3.3359 24.3218 3.90145 24.84 4.62568C25.3661 5.34991 25.6292 6.19213 25.6292 7.15235C25.6292 8.13698 25.4486 8.98327 25.0874 9.69123C24.734 10.3992 24.2629 11.0217 23.674 11.5588C23.0851 12.0877 22.4373 12.5759 21.7306 13.0235C21.0239 13.4711 20.3172 13.9227 19.6106 14.3784C18.9117 14.8341 18.2679 15.3386 17.679 15.892C17.09 16.4453 16.615 17.0963 16.2538 17.8449C15.8926 18.5854 15.712 19.4724 15.712 20.5059C15.712 21.0836 15.7787 21.6614 15.9122 22.2392C15.5982 22.2554 15.3469 22.2676 15.1584 22.2758C14.9778 22.2839 14.8129 22.288 14.6638 22.288C13.8942 22.288 13.1444 22.1863 12.4141 21.9828C11.6839 21.7794 11.0243 21.4864 10.4354 21.104C11.2677 20.5262 11.9116 19.7857 12.367 18.8825C12.8224 17.9792 13.0502 16.958 13.0502 15.8187C13.0502 15.6885 13.0462 15.5583 13.0384 15.4281C13.0305 15.2979 13.0187 15.1718 13.003 15.0497C14.3222 14.6998 15.2919 14.0732 15.9122 13.17C16.5325 12.2586 16.8388 11.1275 16.8309 9.77667C16.8309 9.50814 16.7367 9.27622 16.5483 9.08092C16.3677 8.88562 16.1478 8.78798 15.8887 8.78798C15.6296 8.78798 15.4058 8.88562 15.2173 9.08092C15.0289 9.27622 14.9347 9.50814 14.9347 9.77667C14.9347 10.6962 14.7423 11.4448 14.3575 12.0226C13.9806 12.5922 13.3407 12.9869 12.4377 13.2066C12.3199 12.9625 12.1864 12.7387 12.0372 12.5353C11.888 12.3237 11.7192 12.1365 11.5308 11.9738C11.3188 11.7866 11.1342 11.6564 10.9772 11.5832C10.828 11.5099 10.6513 11.4733 10.4472 11.4733C10.1724 11.4733 9.94858 11.5506 9.77584 11.7052C9.61094 11.8599 9.52849 12.0633 9.52849 12.3156C9.52849 12.6248 9.60702 12.8526 9.76406 12.9991C9.9211 13.1374 10.1331 13.3368 10.4001 13.5972C10.6278 13.825 10.8162 14.1465 10.9654 14.5615C11.1146 14.9684 11.1892 15.3752 11.1892 15.7821C11.1892 16.6365 11.0008 17.4096 10.6239 18.1013C10.2548 18.7848 9.7248 19.326 9.03381 19.7247C8.35068 20.1234 7.53014 20.3228 6.57219 20.3228ZM25.5585 27.5C24.8754 27.5 24.2825 27.3006 23.78 26.9019C23.2853 26.5113 22.8849 26.0027 22.5786 25.3761C22.2803 24.7577 22.084 24.1026 21.9897 23.4109C21.8406 23.4191 21.6678 23.4272 21.4715 23.4354C21.2752 23.4435 21.0043 23.4476 20.6588 23.4476C20.0149 23.4476 19.4457 23.3011 18.951 23.0081C18.4642 22.7152 18.0873 22.3205 17.8203 21.8241C17.5533 21.3196 17.4316 20.7622 17.4552 20.1519C17.4944 19.3707 17.6829 18.7075 18.0205 18.1623C18.3582 17.609 18.7939 17.1207 19.3279 16.6976C19.8697 16.2744 20.4664 15.8716 21.1182 15.4892C21.7699 15.1067 22.4334 14.6998 23.1087 14.2685C23.7839 13.8373 24.4278 13.3327 25.0403 12.755C25.6606 12.1772 26.2024 11.4815 26.6657 10.6677C27.1289 9.85398 27.4666 8.87342 27.6786 7.72604C28.6993 8.2387 29.5081 8.97107 30.1049 9.92315C30.7016 10.8752 31 11.9616 31 13.1822C31 14.5574 30.5564 15.6316 29.6691 16.4046C28.7818 17.1777 27.6118 17.5032 26.1592 17.3811C25.8922 17.3567 25.6645 17.4462 25.4761 17.6496C25.2955 17.8531 25.2052 18.0891 25.2052 18.3576C25.2052 18.6343 25.2955 18.8621 25.4761 19.0411C25.6645 19.2202 25.8922 19.3178 26.1592 19.3341C26.8816 19.3829 27.5569 19.3504 28.185 19.2364C28.8132 19.1144 29.3864 18.915 29.9046 18.6383C29.9125 18.8743 29.9203 19.1225 29.9282 19.3829C29.936 19.6352 29.94 19.8996 29.94 20.1763C29.94 21.0796 29.8497 21.9665 29.6691 22.8373C29.4885 23.708 29.2176 24.4932 28.8564 25.193C28.4952 25.8929 28.0398 26.4503 27.4901 26.8653C26.9405 27.2884 26.2966 27.5 25.5585 27.5Z" fill="#353E48"/>
</svg>
