<svg width="45" height="26" viewBox="0 0 45 26" fill="none" xmlns="http://www.w3.org/2000/svg">
<path d="M4.18467 5.48211C4.54118 6.14064 5.03279 6.7051 5.60459 7.11244C11.6939 11.458 33.9959 11.54 39.8403 6.68309C40.1105 6.4589 40.4592 5.97151 40.6623 5.65325C40.6841 5.53916 40.7076 5.48211 40.7338 5.48111C40.7686 5.47911 40.807 5.58019 40.8497 5.78235C42.1702 10.3311 43.4908 14.8798 44.8113 19.4285C44.9098 20.9887 42.0465 22.3719 40.9613 22.8182C32.2587 26.4041 13.5174 26.2971 4.70766 23.0754C3.64686 22.6871 0.339829 21.275 0.185547 19.8568C1.32392 15.0349 2.99138 10.32 4.18467 5.48211Z" fill="#353E48"/>
<path d="M19.3833 0.545061C23.8444 0.324882 36.4337 0.828292 39.7773 3.93182C41.4718 5.5051 40.384 6.51292 38.8908 7.49972C33.4064 11.1227 12.2794 10.9675 6.56749 7.77094C4.94361 6.8622 3.28835 5.70626 5.19726 3.9128C7.59865 1.65797 16.1321 0.705192 19.3833 0.545061Z" stroke="#353E48" stroke-width="0.396243" stroke-linecap="round" stroke-linejoin="round"/>
<path d="M19.5403 1.44581C23.5786 1.26767 34.9745 1.676 38.0009 4.19705C39.535 5.47509 38.55 6.29376 37.1981 7.09541C32.2341 10.0378 13.1092 9.91271 7.93774 7.31659C6.46814 6.57899 4.9689 5.63923 6.69738 4.18304C8.87214 2.35055 16.5967 1.57692 19.5403 1.44681V1.44581Z" fill="#353E48" stroke="#353E48" stroke-width="0.340337" stroke-linecap="round" stroke-linejoin="round"/>
<path d="M22.263 16.5216C24.0747 16.3839 24.0084 17.6401 24.8196 18.558C25.2928 19.093 26.0993 19.1918 26.4429 19.8878C27.0695 21.1565 26.1665 23.1667 24.6161 23.0048C24.1646 22.9573 23.608 22.4378 23.2361 22.3399C21.5096 21.8834 19.5957 24.1834 18.5688 21.9658C17.4698 19.5921 19.4869 19.4196 20.3548 18.3089C20.9493 17.549 20.8953 16.6253 22.2621 16.5216H22.263Z" fill="white"/>
<path d="M20.3983 12.1987C22.8706 11.7897 22.5412 17.4374 20.155 16.1057C19.0902 15.5115 19.0201 12.4274 20.3983 12.1987Z" fill="white"/>
<path d="M24.1336 12.1987C26.1336 12.0164 25.9528 15.9428 24.4583 16.2714C22.34 16.7366 22.4223 12.3537 24.1336 12.1987Z" fill="white"/>
<path d="M26.648 15.1918C28.3404 15.1104 28.1482 18.3506 26.8108 18.8488C24.8335 19.5863 24.9641 15.2732 26.648 15.1918Z" fill="white"/>
<path d="M17.8016 15.1918C19.7732 14.6287 20.2644 18.6084 18.6942 18.8488C17.0264 19.1047 16.6014 15.534 17.8016 15.1918Z" fill="white"/>
</svg>
