<svg width="42" height="28" viewBox="0 0 42 28" fill="none" xmlns="http://www.w3.org/2000/svg">
<path d="M3.76359 9.11105C4.0991 9.71599 4.56176 10.2345 5.09988 10.6087C10.8306 14.6005 31.8191 14.6759 37.3193 10.2143C37.5736 10.0083 37.9017 9.56062 38.0928 9.26826C38.1134 9.16346 38.1355 9.11105 38.1601 9.11013C38.1929 9.1083 38.229 9.20115 38.2692 9.38686C39.512 13.5653 40.7548 17.7438 41.9975 21.9223C42.0902 23.3555 39.3955 24.6261 38.3742 25.0361C30.1842 28.3302 12.5467 28.2318 4.25578 25.2724C3.25746 24.9157 0.145195 23.6185 0 22.3158C1.07133 17.8863 2.64059 13.5543 3.76359 9.11013V9.11105Z" fill="#353E48"/>
<path d="M6.22934 7.70257C6.1916 7.97011 6.32859 8.27441 6.64113 8.27441C9.42742 9.18294 15.2 11 16 11C16.8 11 23.0847 10.8176 26.1271 10.7263V10.5121L36.2528 8.64216C36.6244 8.70099 36.8524 8.28453 36.7852 7.98665C37.8368 9.06598 36.8923 9.75673 35.6745 10.5121C30.6621 13.621 11.3881 13.621 6.60504 10.7263C5.14488 10.0111 3.65602 9.09999 5.37293 7.68786C5.43363 7.63822 5.49844 7.58949 5.56734 7.54169C5.66168 7.68327 5.8159 7.77888 6.01031 7.74211C6.08332 7.72832 6.22934 7.70257 6.22934 7.70257Z" fill="#353E48"/>
<path d="M28.6806 3.21199H27.4867C27.3241 3.21199 26.5274 3.4257 26.3376 3.49225C25.4167 3.81648 24.8298 4.39593 24.3389 5.045C23.72 5.06331 23.2211 5.12071 22.6494 5.29962C22.2274 5.4315 20.3817 6.26375 20.9566 6.70155C21.4523 6.93113 21.7269 6.47563 22.0624 6.2784C23.6063 5.37411 25.4544 5.4944 26.7243 6.63438C27.0583 6.93418 27.3273 7.76704 27.9078 7.48555C28.3707 7.26085 27.4378 6.31382 27.1968 6.11232C26.8244 5.80092 26.304 5.54263 25.8107 5.35457C25.2166 5.12804 24.9643 5.28801 25.5697 4.71833C27.1295 3.24923 30.21 3.68825 31.6025 5.07797C31.8203 5.29473 32.0925 5.89251 32.3167 5.96394C32.4841 6.01768 33.453 5.92792 33.7781 5.9499C36.0242 6.10255 37 7.5 37.2149 8.62633C37.4297 9.75266 36.0634 10.1379 35 10.5C33.8173 10.9024 32.6058 10.8939 31.1116 11.038C28.4267 11.2963 27.0847 11.4257 25.3575 11.4807C24.0859 11.521 22.4035 11.4941 19.0917 11.4379C15.6685 11.3799 14.5066 11.3317 13.3351 11.2609C12.1468 11.1888 11.7 11.1388 11.3941 11.0838C11.1539 11.0404 11.0506 11.013 10.8336 10.966C9.68776 10.7174 8.74528 10.6778 8.42659 10.6509C7.69631 10.5898 6.52505 10.4348 5.00364 9.37665C4.99323 8.99259 4.99219 8.59509 5.18679 8.1279C6.01964 6.12836 10.0209 4.94547 11.9234 6.77482C12.1004 6.94456 12.516 7.60279 12.6681 7.63759C13.0012 7.71331 13.4184 7.37015 13.7475 7.27001C15.0575 6.87251 16.3155 7.34328 16.8976 8.26589C17.0722 8.54249 17.0698 9.08409 17.6792 8.87649C18.0996 8.733 17.744 8.19018 17.5983 7.9551C16.7559 6.60263 14.6972 6.15262 12.9764 6.85603C12.343 6.05492 11.3957 5.46631 10.165 5.28679C10.2146 4.10956 11.668 3.07399 13.1085 2.79067C14.1014 2.59528 14.8742 2.66917 15.8399 2.88226C16.0897 2.93722 16.2162 3.09292 16.4925 3.00011C16.6975 2.93111 17.0898 2.25457 17.322 2.0372C20.0029 -0.468691 25.5777 0.353172 28.1369 2.60994C28.3274 2.77785 28.5604 3.00927 28.679 3.2126L28.6806 3.21199Z" fill="#353E48"/>
<path d="M20.8653 19.5079C22.5772 19.3809 22.5146 20.5401 23.2812 21.3871C23.7284 21.8808 24.4904 21.972 24.8151 22.6142C25.4072 23.785 24.5539 25.6401 23.0889 25.4907C22.6622 25.4469 22.1363 24.9674 21.7848 24.8771C20.1534 24.4558 18.3448 26.5783 17.3744 24.5319C16.336 22.3414 18.242 22.1822 19.0622 21.1572C19.6239 20.456 19.5729 19.6036 20.8644 19.5079H20.8653Z" fill="#FBFBFB"/>
<path d="M19.1018 15.5196C21.4381 15.1422 21.1268 20.354 18.872 19.125C17.8657 18.5767 17.7996 15.7307 19.1018 15.5196Z" fill="#FBFBFB"/>
<path d="M22.6308 15.5197C24.5207 15.3516 24.3499 18.9749 22.9376 19.2781C20.9359 19.7074 21.0137 15.6628 22.6308 15.5197Z" fill="#FBFBFB"/>
<path d="M25.0076 18.2807C26.6068 18.2056 26.4252 21.1957 25.1614 21.6554C23.293 22.3361 23.4164 18.3559 25.0076 18.2807Z" fill="#FBFBFB"/>
<path d="M16.6477 18.2808C18.5107 17.7611 18.9749 21.4336 17.4911 21.6554C15.9151 21.8916 15.5135 18.5965 16.6477 18.2808Z" fill="#FBFBFB"/>
</svg>
